<?xml version="1.0" encoding="UTF-8" standalone="no"?>
<svg version="1.1" width="500" height="500" viewBox="0 0 500 500" xmlns="http://www.w3.org/2000/svg">
  <desc>TacticalPrints / Tactical Prints Lab wordmark — cleaned from client-supplied artwork (outlined paths, no external font dependency).</desc>
  <g transform="translate(261.26763,223.72132)" fill="var(--logo-text, #eae7dc)">
    <path d="m -215.5448,57.786144 h 20.13794 V -42.903553 h 18.52002 v -20.137939 h -57.17798 v 20.137939 h 18.52002 z m 71.3606,-20.137939 h -10.05176 V 17.510265 L -144.1842,7.4585075 Z m -20.13794,20.137939 h 15.11206 c 1.37695,0 2.54736,-0.963867 3.54565,-2.926025 0.99829,-1.962158 1.48023,-4.337402 1.48023,-7.125733 v 10.051758 h 20.13794 v -90.637939 c 0,-2.753906 -0.9983,-5.129151 -2.96045,-7.125733 -1.96216,-1.927734 -4.33741,-2.926025 -7.12574,-2.926025 h -30.18969 c -2.78833,0 -5.16358,0.998291 -7.12574,2.960449 -1.96215,1.996582 -2.92602,4.337403 -2.92602,7.091309 V 2.3982048 l 20.13794,-10.0517578 v -15.112061 h 10.05176 v 10.051758 L -174.3739,7.4585075 V 47.734386 c 0,2.788331 0.96387,5.163575 2.92602,7.125733 1.96216,1.962158 4.33741,2.926025 7.12574,2.926025 z m 52.84057,0 h 30.1897 c 2.78833,0 5.163574,-0.963867 7.125732,-2.926025 1.962159,-1.962158 2.96045,-4.337402 2.96045,-7.125733 V 17.510265 l -20.13794,10.086182 v 10.051758 h -10.051762 v -60.413819 h 10.051762 v 20.1379399 l 20.13794,-10.0861819 v -20.137939 c 0,-2.753906 -0.998291,-5.129151 -2.96045,-7.125733 -1.962158,-1.927734 -4.337402,-2.926025 -7.125732,-2.926025 h -30.1897 c -2.78833,0 -5.16357,0.998291 -7.12573,2.960449 -1.96216,1.996582 -2.92603,4.371826 -2.92603,7.125733 v 80.551757 c 0,2.788331 0.96387,5.163575 2.92603,7.125733 1.96216,1.962158 4.3374,2.926025 7.12573,2.926025 z m 62.238284,0 h 23.304932 V 37.648205 h -13.21875 v -50.362061 l 12.186035,-6.402832 v -20.137939 l -12.186035,6.402832 v -30.189697 h -20.13794 v 40.275878 l -9.328857,5.163575 V 2.5703239 l 9.328857,-5.197998 V 47.734386 c 0,2.788331 0.963867,5.163575 2.926025,7.125733 z m 26.88501,0 H -2.2203369 V -42.903553 l -20.1379391,10.051758 z m 0,-95.663818 20.1379391,-10.086182 V -68.101795 L -22.358276,-58.015614 Z M 10.34436,57.786144 h 30.189698 c 2.78833,0 5.163574,-0.963867 7.125732,-2.926025 1.962158,-1.962158 2.960449,-4.337402 2.960449,-7.125733 V 17.510265 L 30.4823,27.596447 V 37.648205 H 20.430542 V -22.765614 H 30.4823 V -2.6276741 L 50.620239,-12.713856 v -20.137939 c 0,-2.753906 -0.998291,-5.129151 -2.960449,-7.125733 -1.962158,-1.927734 -4.337402,-2.926025 -7.125732,-2.926025 H 10.34436 c -2.7883297,0 -5.1635739,0.998291 -7.1257321,2.960449 -1.9621582,1.996582 -2.92602536,4.371826 -2.92602536,7.125733 v 80.551757 c 0,2.788331 0.96386716,5.163575 2.92602536,7.125733 1.9621582,1.962158 4.3374024,2.926025 7.1257321,2.926025 z M 83.322876,37.648205 H 73.271118 V 17.510265 L 83.322876,7.4585075 Z M 63.184937,57.786144 h 15.11206 c 1.376953,0 2.547363,-0.963867 3.545654,-2.926025 0.998291,-1.962158 1.480225,-4.337402 1.480225,-7.125733 v 10.051758 h 20.137944 v -90.637939 c 0,-2.753906 -0.9983,-5.129151 -2.96045,-7.125733 -1.962162,-1.927734 -4.337406,-2.926025 -7.125736,-2.926025 H 63.184937 c -2.788331,0 -5.163575,0.998291 -7.125733,2.960449 -1.962158,1.996582 -2.926025,4.337403 -2.926025,7.091309 V 2.3982048 L 73.271118,-7.653553 v -15.112061 h 10.051758 v 10.051758 L 53.133179,7.4585075 V 47.734386 c 0,2.788331 0.963867,5.163575 2.926025,7.125733 1.962158,1.962158 4.337402,2.926025 7.125733,2.926025 z m 42.788813,0 h 20.13794 V -63.041492 l -20.13794,10.051757 z" />
  </g>
  <g transform="translate(261.26763,366.12647)" fill="var(--logo-text, #eae7dc)">
    <path d="m -136.56006,-42.872849 v -18.75 h 5.34668 v 13.385009 z m -10.71167,34.8083491 h 10.71167 V -32.16118 l 16.05835,-10.711669 V -66.98784 c 0,-1.464843 -0.531,-2.728271 -1.57471,-3.790283 -1.0437,-1.025391 -2.30712,-1.556396 -3.79028,-1.556396 h -21.40503 z m 28.10669,0 h 10.71167 V -50.892869 h 2.67334 v 10.693359 l 9.851075,-5.36499 v -10.71167 c 0,-1.464844 -0.531006,-2.728271 -1.556397,-3.790283 -1.062011,-1.025391 -2.325439,-1.556396 -3.790278,-1.556396 h -4.5044 c -0.75073,0 -1.37329,0.531005 -1.9043,1.574707 -0.51269,1.062011 -0.76904,2.325439 -0.76904,3.790283 v -5.36499 h -10.71167 z m 24.572755,0 h 10.71167 V -61.622849 l -10.71167,5.346679 z m 0,-50.8850101 10.71167,-5.36499 v -10.71167 l -10.71167,5.36499 z m 12.04834,50.8850101 h 10.71167 V -50.892869 h 5.346679 v 42.8283691 h 10.71167 V -56.27617 c 0,-1.464844 -0.531006,-2.728271 -1.574707,-3.790283 -1.043701,-1.025391 -2.307129,-1.556396 -3.790283,-1.556396 h -8.02002 c -0.750732,0 -1.373291,0.531005 -1.904296,1.574707 -0.512696,1.062011 -0.769043,2.325439 -0.769043,3.790283 v -5.36499 h -10.71167 z m 38.452148,0 h 12.39624 V -18.77617 h -7.03125 V -45.5645 l 6.481934,-3.405762 v -10.711669 l -6.481934,3.405761 v -16.058349 h -10.71167 v 21.423339 l -4.962158,2.746582 v 10.729981 l 4.962158,-2.764893 v 26.78833 c 0,1.483155 0.512696,2.746582 1.556397,3.7902837 z m 19.647217,0 h 15.1977538 c 1.4831543,0 2.7465821,-0.5126953 3.7902832,-1.5563964 1.0620118,-1.0437017 1.5747071,-2.3071287 1.5747071,-3.7902837 v -34.82666 l -16.0583501,10.71167 v -13.38501 h 5.34668 v 5.34668 l 10.7116701,-5.34668 v -5.36499 c 0,-1.464844 -0.5126953,-2.728271 -1.5747071,-3.790283 -1.0437011,-1.025391 -2.3071289,-1.556396 -3.7902832,-1.556396 H -24.44458 c -1.483154,0 -2.746582,0.531005 -3.790283,1.574707 -1.043701,1.062011 -1.556397,2.307128 -1.556397,3.771972 v 34.82666 l 15.197754,-10.71167 v 13.38501 h -5.34668 v -5.346679 l -9.851074,5.346679 v 5.36499 c 0,1.483155 0.512696,2.746582 1.556397,3.7902837 1.043701,1.0437011 2.307129,1.5563964 3.790283,1.5563964 z m 28.5827636,0 H 27.374268 V -18.77617 H 14.849854 V -72.334519 H 4.1381836 Z M 44.769287,-18.77617 h -5.34668 v -10.71167 l 5.34668,-5.346679 z m -10.71167,10.7116701 h 8.03833 c 0.732422,0 1.354981,-0.5126953 1.885987,-1.5563964 0.531005,-1.0437017 0.787353,-2.3071287 0.787353,-3.7902837 v 5.3466801 h 10.71167 V -56.27617 c 0,-1.464844 -0.531006,-2.728271 -1.574707,-3.790283 -1.043701,-1.025391 -2.307129,-1.556396 -3.790283,-1.556396 h -16.05835 c -1.483154,0 -2.746582,0.531005 -3.790283,1.574707 -1.043701,1.062011 -1.556397,2.307128 -1.556397,3.771972 v 18.75 l 10.71167,-5.346679 v -8.038331 h 5.34668 v 5.34668 l -16.05835,10.729981 v 21.423339 c 0,1.483155 0.512696,2.746582 1.556397,3.7902837 1.043701,1.0437011 2.307129,1.5563964 3.790283,1.5563964 z M 72.875977,-18.77617 h -5.34668 v -32.116699 h 5.34668 z m -16.05835,10.7116701 h 10.71167 V -13.41118 c 0,1.483155 0.256348,2.746582 0.769043,3.7902837 0.531006,1.0437011 1.153564,1.5563964 1.904297,1.5563964 h 8.020019 c 1.483155,0 2.746582,-0.5126953 3.790283,-1.5563964 1.043702,-1.0437017 1.574707,-2.3071287 1.574707,-3.7902837 v -42.86499 c 0,-1.464844 -0.531005,-2.728271 -1.574707,-3.790283 -1.043701,-1.025391 -2.307128,-1.556396 -3.790283,-1.556396 h -8.020019 c -0.750733,0 -1.373291,0.531005 -1.904297,1.574707 -0.512695,1.062011 -0.769043,2.325439 -0.769043,3.790283 v -16.07666 l -10.71167,5.346679 z" />
  </g>
  <g transform="matrix(6.4190234,0,0,5.7298005,80.976481,119.97093)" fill="var(--logo-accent, #ff6a00)">
    <path transform="translate(-2.359e-6)" d="m -4.08644,-10.07583 h 10 v 6 h 2 v 5 h -2.5 l -3.5,4 h -2 l -3.5,-4 h -2.5 v -5 h 2 v -6 m 3,20 c 0,0 -4.50148,0.40027 -6.07121,-0.09973 -1.56973,-0.5 -0.20772,-1.90027 -0.20772,-1.90027 h 6.27893 c 0.55228,0 1,-0.44772 1,-1 v -1 h 2 v 1 c 0,1.65685 -1.34315,3 -3,3 z" stroke-linecap="round" />
  </g>
</svg>
